<svg width="43" height="43" viewBox="0 0 43 43" fill="none" xmlns="http://www.w3.org/2000/svg">
<path fill-rule="evenodd" clip-rule="evenodd" d="M42.2257 37.2545C40.8985 41.2878 35.6985 43.2993 31.9834 42.9639C26.9095 42.5053 21.3885 39.8141 17.1975 36.85C11.0372 32.4928 5.26677 25.7529 1.90426 18.6007C-0.47214 13.5469 -1.00532 7.33331 2.52919 2.7267C3.83635 1.02394 5.24958 0.114541 7.37372 0.00847745C10.3206 -0.134852 10.7334 1.55099 11.7453 4.17679C12.4992 6.1404 13.5054 8.14343 14.0672 10.1787C15.1192 13.9769 11.4414 14.1357 10.977 17.2402C10.6875 19.1981 13.061 21.8237 14.1331 23.2197C16.2344 25.9545 18.7598 28.3132 21.6092 30.1077C23.2403 31.1368 25.8747 32.9912 27.7437 31.9679C30.6218 30.3912 30.3494 25.5383 34.3741 27.1809C36.4581 28.0294 38.4762 29.2539 40.4656 30.326C43.5415 31.98 43.3982 33.6942 42.2257 37.2545C43.1029 34.5944 41.3485 39.9147 42.2257 37.2545Z" fill="#29CB25"/>
</svg>
