<svg width="43" height="43" viewBox="0 0 43 43" fill="none" xmlns="http://www.w3.org/2000/svg">
<path d="M41.2061 3.90644H32.25V1.95689C32.2509 1.69964 32.2051 1.44474 32.1153 1.20688C32.0254 0.969025 31.8933 0.752915 31.7266 0.571009C31.5598 0.389103 31.3617 0.244998 31.1436 0.146999C30.9256 0.0489996 30.6919 -0.000955115 30.4561 1.38299e-05H12.5439C12.3081 -0.000955115 12.0744 0.0489996 11.8564 0.146999C11.6383 0.244998 11.4402 0.389103 11.2734 0.571009C11.1067 0.752915 10.9746 0.969025 10.8847 1.20688C10.7949 1.44474 10.7491 1.69964 10.75 1.95689V3.90644H1.79391C1.31813 3.90644 0.861846 4.11261 0.525423 4.47959C0.189 4.84658 0 5.34432 0 5.86332C0 6.38231 0.189 6.88005 0.525423 7.24704C0.861846 7.61402 1.31813 7.82019 1.79391 7.82019H5.375V37.1367C5.375 38.6917 5.94129 40.1831 6.9493 41.2827C7.95731 42.3823 9.32446 43 10.75 43H32.25C33.6755 43 35.0427 42.3823 36.0507 41.2827C37.0587 40.1831 37.625 38.6917 37.625 37.1367V7.82019H41.2061C41.6819 7.82019 42.1382 7.61402 42.4746 7.24704C42.811 6.88005 43 6.38231 43 5.86332C43 5.34432 42.811 4.84658 42.4746 4.47959C42.1382 4.11261 41.6819 3.90644 41.2061 3.90644ZM34.0439 37.1367C34.0421 37.6544 33.8523 38.1503 33.5161 38.5157C33.1799 38.8811 32.7246 39.0863 32.25 39.0862H10.75C10.2754 39.0863 9.82012 38.8811 9.48389 38.5157C9.14766 38.1503 8.95787 37.6544 8.95609 37.1367V7.82019H34.0439V37.1367Z" fill="#35353D"/>
<path d="M16.125 33.2229C16.5996 33.2229 17.0548 33.0178 17.3911 32.6524C17.7273 32.287 17.9171 31.7911 17.9189 31.2734V15.633C17.9189 15.114 17.7299 14.6163 17.3934 14.2493C17.057 13.8823 16.6007 13.6761 16.125 13.6761C15.6492 13.6761 15.1929 13.8823 14.8565 14.2493C14.5201 14.6163 14.3311 15.114 14.3311 15.633V31.2734C14.3328 31.7911 14.5226 32.287 14.8588 32.6524C15.1951 33.0178 15.6503 33.2229 16.125 33.2229Z" fill="#35353D"/>
<path d="M26.875 33.2229C27.3496 33.2229 27.8048 33.0178 28.1411 32.6524C28.4773 32.287 28.6671 31.7911 28.6689 31.2734V15.633C28.6689 15.114 28.4799 14.6163 28.1434 14.2493C27.807 13.8823 27.3507 13.6761 26.875 13.6761C26.3992 13.6761 25.9429 13.8823 25.6065 14.2493C25.2701 14.6163 25.0811 15.114 25.0811 15.633V31.2734C25.0828 31.7911 25.2726 32.287 25.6088 32.6524C25.9451 33.0178 26.4003 33.2229 26.875 33.2229Z" fill="#35353D"/>
</svg>
